<svg width="14" height="14" viewBox="0 0 14 14" fill="none" xmlns="http://www.w3.org/2000/svg">
    <circle cx="7" cy="7" r="7" fill="#54AC43"/>
    <path d="M3 7C3 6.75147 3.19736 6.55 3.44082 6.55L8.60541 6.55L6.67341 4.78536C6.49198 4.61965 6.4765 4.33516 6.63883 4.14995C6.80117 3.96473 7.07985 3.94893 7.26128 4.11465L10.0531 6.66464C10.1466 6.75001 10.2 6.87197 10.2 7C10.2 7.12802 10.1466 7.24999 10.0531 7.33536L7.26128 9.88535C7.07985 10.0511 6.80117 10.0353 6.63883 9.85005C6.4765 9.66484 6.49198 9.38036 6.67341 9.21464L8.60541 7.45L3.44082 7.45C3.19736 7.45 3 7.24853 3 7Z" fill="white"/>
</svg>
