<svg width="16" height="16" viewBox="0 0 16 16" fill="none" xmlns="http://www.w3.org/2000/svg">
<path d="M14.9962 3.54145C15.2269 3.54145 15.4229 3.62217 15.5843 3.78361C15.7458 3.94506 15.8265 4.14109 15.8265 4.37172V14.8885C15.8265 15.1191 15.7458 15.3151 15.5843 15.4766C15.4229 15.638 15.2269 15.7188 14.9962 15.7188H6.69353C6.4629 15.7188 6.26686 15.638 6.10542 15.4766C5.94398 15.3151 5.86326 15.1191 5.86326 14.8885V12.3977H1.1584C0.927765 12.3977 0.731729 12.3169 0.570287 12.1555C0.408846 11.9941 0.328125 11.798 0.328125 11.5674V5.75551C0.328125 5.52488 0.385783 5.27118 0.501098 4.99443C0.616413 4.71767 0.754792 4.49857 0.916233 4.33713L4.44488 0.808479C4.60632 0.647038 4.82542 0.508659 5.10218 0.393344C5.37894 0.278028 5.63263 0.220371 5.86326 0.220371H9.4611C9.69173 0.220371 9.88776 0.301092 10.0492 0.462533C10.2106 0.623975 10.2914 0.820011 10.2914 1.05064V3.8874C10.6834 3.65677 11.0524 3.54145 11.3984 3.54145H14.9962ZM10.2914 5.38361L7.70542 7.96956H10.2914V5.38361ZM4.75623 2.06253L2.17029 4.64848H4.75623V2.06253ZM6.45137 7.65821L9.18434 4.92524V1.3274H5.86326V4.92524C5.86326 5.15587 5.78254 5.3519 5.6211 5.51334C5.45966 5.67479 5.26362 5.75551 5.03299 5.75551H1.43515V11.2906H5.86326V9.07659C5.86326 8.84596 5.92092 8.59226 6.03623 8.31551C6.15155 8.03875 6.28993 7.81965 6.45137 7.65821ZM14.7195 14.6117V4.64848H11.3984V8.24632C11.3984 8.47695 11.3177 8.67298 11.1562 8.83443C10.9948 8.99587 10.7988 9.07659 10.5681 9.07659H6.97029V14.6117H14.7195Z" fill="#333333"/>
</svg>
