<svg width="72" height="72" viewBox="0 0 72 72" fill="none" xmlns="http://www.w3.org/2000/svg">
<path d="M30.8701 11.5799L5.46006 53.9999C4.93617 54.9072 4.65896 55.9358 4.65603 56.9834C4.6531 58.0311 4.92454 59.0613 5.44334 59.9715C5.96215 60.8816 6.71024 61.6401 7.61319 62.1714C8.51613 62.7027 9.54246 62.9884 10.5901 62.9999H61.4101C62.4577 62.9884 63.484 62.7027 64.3869 62.1714C65.2899 61.6401 66.038 60.8816 66.5568 59.9715C67.0756 59.0613 67.347 58.0311 67.3441 56.9834C67.3412 55.9358 67.064 54.9072 66.5401 53.9999L41.1301 11.5799C40.5953 10.6982 39.8422 9.96924 38.9436 9.46333C38.0451 8.95743 37.0313 8.69165 36.0001 8.69165C34.9689 8.69165 33.9551 8.95743 33.0565 9.46333C32.1579 9.96924 31.4049 10.6982 30.8701 11.5799V11.5799Z" stroke="currentColor" stroke-width="2" stroke-linecap="round" stroke-linejoin="round"/>
<path d="M36 27V39" stroke="currentColor" stroke-width="2" stroke-linecap="round" stroke-linejoin="round"/>
<path d="M36 51H36.0296" stroke="currentColor" stroke-width="2" stroke-linecap="round" stroke-linejoin="round"/>
</svg>
