<svg width="25" height="22" viewBox="0 0 25 22" fill="none" xmlns="http://www.w3.org/2000/svg">
<path d="M11.9258 15.1904H13.0674L13.1631 8.04687H11.8369L11.9258 15.1904Z" fill="currentColor"/>
<path d="M11.9736 16.8516C11.8506 16.9883 11.7891 17.1592 11.7891 17.3643C11.7891 17.5693 11.8506 17.7402 11.9736 17.877C12.1012 18.0091 12.2881 18.0752 12.5342 18.0752C12.7803 18.0752 12.9671 18.0091 13.0947 17.877C13.2223 17.7402 13.2861 17.5693 13.2861 17.3643C13.2861 17.1592 13.2223 16.9883 13.0947 16.8516C12.9671 16.7103 12.7803 16.6396 12.5342 16.6396C12.2881 16.6396 12.1012 16.7103 11.9736 16.8516Z" fill="currentColor"/>
<path fill-rule="evenodd" clip-rule="evenodd" d="M10.6632 0.999999C11.433 -0.333334 13.3575 -0.333333 14.1273 1L24.5196 19C25.2894 20.3333 24.3272 22 22.7876 22H2.00298C0.463382 22 -0.498867 20.3333 0.270933 19L10.6632 0.999999ZM13.2613 1.5L23.6536 19.5C24.0385 20.1667 23.5574 21 22.7876 21H2.00298C1.23318 21 0.752058 20.1667 1.13696 19.5L11.5293 1.5C11.9142 0.833334 12.8764 0.833333 13.2613 1.5Z" fill="currentColor"/>
</svg>
