<svg width="12" height="12" viewBox="0 0 12 12" fill="none" xmlns="http://www.w3.org/2000/svg">
<g id="iconamoon:close-bold" clip-path="url(#clip0_3055_3450)">
<circle id="Ellipse 395" cx="6" cy="6" r="6" fill="#E67058"/>
<path id="Vector (Stroke)" fill-rule="evenodd" clip-rule="evenodd" d="M3.57564 3.57564C3.80995 3.34132 4.18985 3.34132 4.42417 3.57564L5.9999 5.15137L7.57564 3.57564C7.80995 3.34132 8.18985 3.34132 8.42417 3.57564C8.65848 3.80995 8.65848 4.18985 8.42417 4.42417L6.84843 5.9999L8.42417 7.57564C8.65848 7.80995 8.65848 8.18985 8.42417 8.42417C8.18985 8.65848 7.80995 8.65848 7.57564 8.42417L5.9999 6.84843L4.42417 8.42417C4.18985 8.65848 3.80995 8.65848 3.57564 8.42417C3.34132 8.18985 3.34132 7.80995 3.57564 7.57564L5.15137 5.9999L3.57564 4.42417C3.34132 4.18985 3.34132 3.80995 3.57564 3.57564Z" fill="white"/>
</g>
<defs>
<clipPath id="clip0_3055_3450">
<rect width="12" height="12" fill="white"/>
</clipPath>
</defs>
</svg>
