<svg width="12" height="12" viewBox="0 0 12 12" fill="none" xmlns="http://www.w3.org/2000/svg">
<g id="Property 1=error">
<path id="Vector" d="M6 12C7.5913 12 9.11742 11.3679 10.2426 10.2426C11.3679 9.11742 12 7.5913 12 6C12 4.4087 11.3679 2.88258 10.2426 1.75736C9.11742 0.632141 7.5913 0 6 0C4.4087 0 2.88258 0.632141 1.75736 1.75736C0.632141 2.88258 0 4.4087 0 6C0 7.5913 0.632141 9.11742 1.75736 10.2426C2.88258 11.3679 4.4087 12 6 12ZM5.1 8.7C5.1 8.46131 5.19482 8.23239 5.3636 8.0636C5.53239 7.89482 5.76131 7.8 6 7.8C6.2387 7.8 6.46761 7.89482 6.6364 8.0636C6.80518 8.23239 6.9 8.46131 6.9 8.7C6.9 8.93869 6.80518 9.16761 6.6364 9.3364C6.46761 9.50518 6.2387 9.6 6 9.6C5.76131 9.6 5.53239 9.50518 5.3636 9.3364C5.19482 9.16761 5.1 8.93869 5.1 8.7ZM5.4096 2.892C5.43465 2.75366 5.50748 2.62851 5.61538 2.53839C5.72329 2.44827 5.85941 2.3989 6 2.3989C6.14059 2.3989 6.27671 2.44827 6.38462 2.53839C6.49252 2.62851 6.56535 2.75366 6.5904 2.892L6.6 3V6L6.5904 6.108C6.56535 6.24634 6.49252 6.37149 6.38462 6.46161C6.27671 6.55173 6.14059 6.6011 6 6.6011C5.85941 6.6011 5.72329 6.55173 5.61538 6.46161C5.50748 6.37149 5.43465 6.24634 5.4096 6.108L5.4 6V3L5.4096 2.892Z" fill="#E6786C"/>
</g>
</svg>
