<svg width="12" height="12" viewBox="0 0 12 12" fill="none" xmlns="http://www.w3.org/2000/svg">
<g id="Property 1=error">
<path id="Vector" d="M7.09224 0.697955C6.98375 0.486303 6.82548 0.310048 6.63376 0.187363C6.44203 0.0646769 6.22377 0 6.0015 0C5.77923 0 5.56097 0.0646769 5.36925 0.187363C5.17752 0.310048 5.01925 0.486303 4.91076 0.697955L0.158908 9.97126C0.052613 10.1787 -0.00214441 10.4128 6.42651e-05 10.6504C0.00227294 10.888 0.0613708 11.1209 0.171499 11.3259C0.281627 11.531 0.438961 11.701 0.627902 11.8193C0.816843 11.9375 1.03083 11.9998 1.24864 12H10.7504C10.9683 12 11.1824 11.9378 11.3714 11.8197C11.5605 11.7015 11.718 11.5315 11.8282 11.3264C11.9385 11.1214 11.9977 10.8884 11.9999 10.6507C12.0022 10.413 11.9474 10.1788 11.8411 9.97126L7.09224 0.697955ZM6.75032 9.00052C6.75032 9.21748 6.67132 9.42555 6.5307 9.57896C6.39008 9.73237 6.19937 9.81856 6.0005 9.81856C5.80164 9.81856 5.61092 9.73237 5.4703 9.57896C5.32968 9.42555 5.25068 9.21748 5.25068 9.00052C5.25068 8.78356 5.32968 8.57549 5.4703 8.42208C5.61092 8.26867 5.80164 8.18248 6.0005 8.18248C6.19937 8.18248 6.39008 8.26867 6.5307 8.42208C6.67132 8.57549 6.75032 8.78356 6.75032 9.00052ZM5.50062 6.5464V3.8196C5.50062 3.67496 5.55329 3.53624 5.64703 3.43397C5.74078 3.33169 5.86792 3.27424 6.0005 3.27424C6.13308 3.27424 6.26022 3.33169 6.35397 3.43397C6.44771 3.53624 6.50038 3.67496 6.50038 3.8196V6.5464C6.50038 6.69104 6.44771 6.82975 6.35397 6.93203C6.26022 7.0343 6.13308 7.09176 6.0005 7.09176C5.86792 7.09176 5.74078 7.0343 5.64703 6.93203C5.55329 6.82975 5.50062 6.69104 5.50062 6.5464Z" fill="#E6786C"/>
</g>
</svg>
