<svg width="24" height="24" viewBox="0 0 24 24" fill="none" xmlns="http://www.w3.org/2000/svg">
<circle cx="12" cy="12" r="11.5" stroke="currentColor"/>
<path d="M12.3311 17H11.0664V9.60352H12.3311V17ZM10.9639 7.6416C10.9639 7.43652 11.0254 7.26335 11.1484 7.12207C11.276 6.98079 11.4629 6.91016 11.709 6.91016C11.9551 6.91016 12.1419 6.98079 12.2695 7.12207C12.3971 7.26335 12.4609 7.43652 12.4609 7.6416C12.4609 7.84668 12.3971 8.01758 12.2695 8.1543C12.1419 8.29102 11.9551 8.35938 11.709 8.35938C11.4629 8.35938 11.276 8.29102 11.1484 8.1543C11.0254 8.01758 10.9639 7.84668 10.9639 7.6416Z" fill="currentColor"/>
</svg>
