<?xml version="1.0" encoding="UTF-8"?>
<svg width="896px" height="152px" viewBox="0 0 896 152" version="1.1" xmlns="http://www.w3.org/2000/svg" xmlns:xlink="http://www.w3.org/1999/xlink">
    <title>metaflow_logo_horizontal</title>
    <g id="Page-1" stroke="none" stroke-width="1" fill="none" fill-rule="evenodd">
        <g id="Metaflow_Logo_Horizontal_TwoColor_Dark_RGB" transform="translate(-92.000000, -93.000000)">
            <g id="metaflow_logo_horizontal" transform="translate(92.930727, 93.190000)">
                <path d="M223.990273,66.33 C223.515273,61.851 222.686273,57.512 221.505273,53.33 C220.325273,49.148 218.795273,45.122 216.916273,41.271 C212.845273,32.921 207.254273,25.587 200.268273,19.422 C199.270273,18.541 198.243273,17.684 197.189273,16.851 C191.255273,12.166 184.481273,8.355 177.253273,5.55 C174.156273,4.347 170.975273,3.33 167.741273,2.508 C161.273273,0.863 154.593273,0 147.943273,0 C141.755273,0 135.332273,0.576 128.687273,1.722 C127.025273,2.01 125.350273,2.332 123.661273,2.69 C120.283273,3.406 116.851273,4.265 113.365273,5.267 C104.650273,7.769 95.6022727,11.161 86.2442727,15.433 C78.7592727,18.851 71.0762727,22.832 63.2072727,27.373 C47.9762727,36.162 35.7372727,44.969 29.3592727,49.791 C29.0692727,50.01 28.7922727,50.221 28.5262727,50.423 C26.1382727,52.244 24.7522727,53.367 24.5662727,53.519 L0.549272727,73.065 C0.191272727,73.356 0.00727272727,73.773 0,74.194 C-0.00372727273,74.403 0.0362727273,74.614 0.120272727,74.811 C0.205272727,75.008 0.334272727,75.189 0.508272727,75.341 L11.7612727,85.195 C12.1692727,85.552 12.7252727,85.651 13.2162727,85.487 C13.3792727,85.432 13.5362727,85.348 13.6762727,85.234 L35.8492727,67.382 C36.0422727,67.224 37.6152727,65.949 40.3252727,63.903 C44.1192727,61.036 50.1422727,56.656 57.7292727,51.711 C62.0642727,48.884 66.9102727,45.873 72.1412727,42.854 C100.864273,26.278 126.367273,17.874 147.943273,17.874 C148.366273,17.874 148.790273,17.892 149.213273,17.902 C149.655273,17.911 150.096273,17.911 150.538273,17.93 C153.769273,18.068 156.995273,18.463 160.170273,19.097 C164.931273,20.049 169.577273,21.542 173.953273,23.524 C178.328273,25.505 182.433273,27.975 186.112273,30.88 C186.771273,31.4 187.406273,31.94 188.035273,32.485 C188.913273,33.245 189.771273,34.023 190.591273,34.83 C191.998273,36.217 193.317273,37.673 194.548273,39.195 C196.395273,41.479 198.042273,43.912 199.480273,46.485 C199.960273,47.342 200.417273,48.216 200.850273,49.105 C201.112273,49.642 201.343273,50.196 201.587273,50.743 C202.231273,52.185 202.834273,53.649 203.354273,55.158 C203.712273,56.198 204.041273,57.255 204.340273,58.326 C205.836273,63.683 206.590273,69.417 206.590273,75.469 C206.590273,81.221 205.892273,86.677 204.541273,91.804 C203.617273,95.308 202.397273,98.662 200.850273,101.833 C200.417273,102.722 199.960273,103.595 199.480273,104.453 C197.562273,107.884 195.275273,111.066 192.636273,113.976 C190.657273,116.159 188.480273,118.189 186.113273,120.058 C184.553273,121.29 182.909273,122.432 181.208273,123.503 C180.313273,124.067 179.400273,124.609 178.470273,125.126 C177.462273,125.688 176.442273,126.232 175.398273,126.737 C166.961273,130.823 157.423273,133.064 147.943273,133.064 C126.367273,133.064 100.864273,124.659 72.1412727,108.084 C70.5382727,107.159 68.4382727,105.886 66.3072727,104.575 C65.0292727,103.788 63.7402727,102.986 62.5412727,102.237 C59.3442727,100.238 56.7882727,98.61 56.7882727,98.61 C61.8362727,93.901 69.3232727,87.465 78.6472727,81.047 C80.0092727,80.11 81.4192727,79.174 82.8572727,78.243 C84.1052727,77.436 85.3712727,76.63 86.6732727,75.835 C88.2042727,74.9 89.7802727,73.981 91.3822727,73.074 C93.0482727,72.131 94.7512727,71.207 96.4902727,70.307 C111.473273,62.55 129.094273,56.602 147.943273,56.602 C151.750273,56.602 157.745273,57.825 162.114273,61.276 C162.300273,61.422 162.489273,61.578 162.677273,61.74 C163.337273,62.305 164.006273,62.966 164.634273,63.78 C164.957273,64.198 165.269273,64.657 165.564273,65.162 C166.006273,65.92 166.409273,66.782 166.750273,67.775 C166.891273,68.185 167.016273,68.627 167.134273,69.083 C167.586273,70.833 167.863273,72.924 167.863273,75.469 C167.863273,78.552 167.460273,80.974 166.824273,82.92 C166.578273,83.674 166.300273,84.363 165.992273,84.983 C165.855273,85.259 165.711273,85.524 165.564273,85.776 C165.376273,86.099 165.178273,86.396 164.977273,86.682 C164.631273,87.175 164.269273,87.618 163.900273,88.018 C163.730273,88.202 163.559273,88.379 163.387273,88.546 C162.962273,88.96 162.534273,89.331 162.114273,89.662 C157.745273,93.112 151.750273,94.337 147.943273,94.337 C144.485273,94.337 140.682273,93.926 136.589273,93.121 C133.860273,92.584 131.003273,91.871 128.033273,90.987 C123.579273,89.662 118.873273,87.952 113.970273,85.872 C113.768273,85.786 113.552273,85.747 113.336273,85.753 C113.122273,85.76 112.908273,85.813 112.713273,85.912 C106.990273,88.816 101.641273,91.995 96.7462727,95.223 C96.6232727,95.304 96.5182727,95.397 96.4302727,95.5 C95.8122727,96.22 96.0172727,97.397 96.9492727,97.822 L102.445273,100.328 C104.606273,101.314 106.737273,102.238 108.835273,103.102 C110.934273,103.966 113.001273,104.77 115.035273,105.511 C118.086273,106.624 121.064273,107.599 123.965273,108.436 C127.834273,109.551 131.567273,110.421 135.157273,111.043 C139.646273,111.82 143.912273,112.211 147.943273,112.211 C148.367273,112.211 148.923273,112.201 149.591273,112.169 C149.925273,112.153 150.287273,112.131 150.674273,112.102 C155.712273,111.724 165.055273,110.114 173.190273,103.691 C173.547273,103.41 173.869273,103.105 174.210273,102.813 C175.324273,101.86 176.381273,100.866 177.333273,99.8 C177.470273,99.648 177.590273,99.485 177.724273,99.331 C181.300273,95.167 183.699273,90.185 184.875273,84.406 C185.444273,81.609 185.737273,78.631 185.737273,75.469 C185.737273,63.315 181.516273,53.82 173.190273,47.247 C167.050273,42.399 160.228273,40.299 155.083273,39.395 C153.892273,39.186 152.790273,39.037 151.809273,38.938 C150.116273,38.766 148.774273,38.727 147.943273,38.727 C133.456273,38.727 118.519273,41.679 103.545273,47.5 C99.1222727,49.22 94.6912727,51.191 90.2702727,53.403 C88.7972727,54.141 87.3242727,54.905 85.8542727,55.696 C83.5092727,56.957 81.1722727,58.303 78.8382727,59.697 C77.3922727,60.562 75.9492727,61.451 74.5082727,62.366 C72.4422727,63.678 70.3802727,65.023 68.3302727,66.437 C63.8372727,69.535 59.7422727,72.63 56.0902727,75.567 C54.8732727,76.547 53.7052727,77.508 52.5882727,78.446 C48.1222727,82.2 44.4752727,85.581 41.7602727,88.226 C38.3032727,91.593 36.3592727,93.766 36.1632727,93.986 L35.8282727,94.362 L32.0332727,98.61 L30.6432727,100.164 C30.4962727,100.329 30.3932727,100.517 30.3312727,100.715 C30.1482727,101.307 30.3472727,101.981 30.8882727,102.368 L37.2812727,106.938 L37.4862727,107.083 L37.6922727,107.228 C39.8732727,108.766 42.0702727,110.277 44.2792727,111.758 C45.8422727,112.807 47.4102727,113.84 48.9832727,114.858 C51.5302727,116.508 54.0902727,118.103 56.6542727,119.665 C57.8412727,120.388 59.0282727,121.101 60.2162727,121.804 C61.2142727,122.394 62.2102727,122.989 63.2072727,123.565 C76.9772727,131.512 90.1802727,137.744 102.748273,142.242 C104.544273,142.884 106.326273,143.491 108.096273,144.063 C111.635273,145.206 115.121273,146.207 118.553273,147.067 C121.986273,147.925 125.364273,148.642 128.687273,149.215 C135.332273,150.362 141.755273,150.938 147.943273,150.938 C154.593273,150.938 161.273273,150.074 167.741273,148.43 C174.209273,146.786 180.465273,144.361 186.265273,141.238 C190.133273,139.156 193.798273,136.764 197.189273,134.087 C200.352273,131.589 203.264273,128.872 205.911273,125.949 C207.677273,124 209.325273,121.96 210.854273,119.831 C211.618273,118.766 212.353273,117.68 213.057273,116.571 C214.466273,114.356 215.753273,112.053 216.916273,109.667 C220.701273,101.906 223.073273,93.439 224.008273,84.406 C224.310273,81.485 224.465273,78.505 224.465273,75.469 C224.465273,72.364 224.306273,69.316 223.990273,66.33" id="Fill-1" fill="#146EE6"></path>
                <path d="M758.389273,75.346 C752.632273,111.56 742.681273,122.23 712.102273,122.23 C710.847273,122.23 709.640273,122.207 708.464273,122.17 C708.321273,122.191 708.191273,122.23 708.028273,122.23 L637.994273,122.23 C636.795273,122.23 636.315273,121.632 636.435273,120.311 L650.585273,31.22 C650.704273,30.016 651.424273,29.417 652.623273,29.417 L667.852273,29.417 C669.050273,29.417 669.530273,30.016 669.410273,31.22 L657.659273,105.802 L714.249273,105.802 L714.249273,105.787 C714.410273,105.794 714.568273,105.802 714.741273,105.802 C718.878273,105.802 722.250273,105.351 725.040273,104.313 C726.434273,103.794 727.684273,103.129 728.810273,102.298 C729.373273,101.884 729.905273,101.426 730.410273,100.927 C734.951273,96.431 737.231273,88.43 739.322273,75.346 C739.328273,75.312 739.331273,75.282 739.337273,75.25 C739.642273,73.311 739.896273,71.474 740.130273,69.679 C740.203273,69.116 740.272273,68.557 740.338273,68.008 C740.412273,67.392 740.461273,66.821 740.525273,66.222 C742.136273,49.927 738.622273,44.525 724.454273,44.525 C723.419273,44.525 722.433273,44.554 721.490273,44.613 C708.297273,45.444 703.831273,52.303 700.461273,71.126 C700.220273,72.472 699.984273,73.877 699.752273,75.346 C699.483273,77.027 699.255273,78.6 699.052273,80.115 C698.993273,80.545 698.948273,80.946 698.895273,81.361 C698.757273,82.465 698.638273,83.528 698.540273,84.544 C698.502273,84.943 698.466273,85.334 698.434273,85.72 C698.344273,86.815 698.281273,87.856 698.246273,88.847 C698.238273,89.049 698.224273,89.269 698.219273,89.469 C698.161273,91.88 698.289273,93.972 698.621273,95.782 C698.649273,95.941 698.686273,96.089 698.717273,96.246 C698.874273,96.992 699.067273,97.689 699.301273,98.337 C699.346273,98.464 699.390273,98.594 699.439273,98.718 C700.039273,100.231 700.864273,101.478 701.963273,102.469 C702.263273,102.738 702.586273,102.987 702.925273,103.22 L679.436273,103.22 C679.393273,102.969 679.343273,102.727 679.305273,102.471 L679.304273,102.471 C679.304273,102.467 679.304273,102.462 679.303273,102.459 C679.259273,102.17 679.236273,101.854 679.198273,101.558 C679.083273,100.634 678.995273,99.671 678.934273,98.674 C678.908273,98.258 678.879273,97.845 678.862273,97.419 C678.816273,96.174 678.804273,94.876 678.832273,93.518 C678.840273,93.114 678.861273,92.69 678.876273,92.276 C678.920273,91.042 678.991273,89.765 679.092273,88.441 C679.117273,88.109 679.134273,87.79 679.162273,87.452 C679.299273,85.836 679.483273,84.137 679.698273,82.382 C679.750273,81.957 679.807273,81.518 679.863273,81.084 C680.104273,79.238 680.369273,77.344 680.687273,75.346 C681.046273,73.067 681.423273,70.889 681.819273,68.808 C687.040273,41.397 695.809273,30.748 717.267273,28.554 C720.250273,28.25 723.472273,28.103 726.971273,28.103 C726.972273,28.103 726.972273,28.103 726.972273,28.103 C747.994273,28.103 757.680273,33.202 759.811273,48.236 C760.779273,55.067 760.187273,63.953 758.389273,75.346 Z M894.023273,31.336 L866.923273,108.56 C863.472273,118.182 861.113273,121.41 854.499273,122.41 C852.379273,122.733 849.831273,122.828 846.659273,122.828 C831.670273,122.828 830.350273,121.267 829.392273,108.56 L825.794273,63.232 L825.794273,63.231 L807.928273,108.56 C804.255273,117.613 802.201273,120.996 795.961273,122.202 C793.442273,122.687 790.260273,122.829 785.985273,122.829 C772.914273,122.829 770.756273,121.267 770.396273,108.56 L767.638273,31.337 C767.638273,29.899 768.238273,29.417 769.557273,29.417 L785.385273,29.417 C786.464273,29.417 786.704273,29.899 786.824273,31.337 L788.895273,100.572 L788.895273,100.571 C789.054273,103.091 789.563273,103.641 791.021273,103.641 C792.939273,103.641 793.419273,103.042 794.618273,100.043 L820.758273,34.576 C821.358273,33.132 822.437273,32.657 823.516273,32.657 L837.665273,32.657 C838.519273,32.657 839.279273,32.977 839.626273,33.817 C839.718273,34.038 839.799273,34.274 839.824273,34.576 L845.220273,100.043 C845.460273,103.042 845.819273,103.641 847.738273,103.641 C849.297273,103.641 849.896273,103.042 850.976273,100.043 L874.838273,31.336 C875.317273,29.898 875.677273,29.417 876.756273,29.417 L892.584273,29.417 C893.903273,29.417 894.383273,29.898 894.023273,31.336 Z M362.708273,31.219 L357.192273,120.311 C357.192273,121.632 356.353273,122.23 355.154273,122.23 L339.926273,122.23 C338.726273,122.23 338.366273,121.632 338.366273,120.311 L342.324273,62.756 L311.986273,117.551 C311.386273,118.749 310.428273,119.348 309.229273,119.348 L297.837273,119.348 C296.758273,119.348 296.038273,118.749 295.560273,117.551 L282.851273,62.767 L282.848273,62.755 L268.339273,120.31 C268.212273,121.009 267.974273,121.492 267.612273,121.807 C267.288273,122.085 266.865273,122.23 266.301273,122.23 L251.073273,122.23 C249.874273,122.23 249.273273,121.632 249.514273,120.31 L272.296273,31.336 C272.537273,30.138 272.897273,29.417 274.095273,29.417 L288.605273,29.417 C291.236273,29.417 292.726273,29.895 293.682273,31.379 C294.120273,32.059 294.457273,32.928 294.720273,34.095 L307.790273,92.489 L339.326273,34.095 C341.485273,30.256 343.043273,29.299 346.880273,29.299 L361.389273,29.299 C362.376273,29.299 362.682273,30.684 362.682273,30.684 C362.682273,30.684 362.708273,31.029 362.708273,31.219 Z M501.706273,31.219 L499.667273,44.049 C499.547273,45.246 498.708273,45.845 497.509273,45.845 L472.448273,45.845 L460.696273,120.31 C460.457273,121.632 459.738273,122.23 458.538273,122.23 L443.309273,122.23 C442.111273,122.23 441.631273,121.632 441.870273,120.31 L453.622273,45.845 L394.820273,45.845 L391.224273,68.507 L391.224273,68.508 L430.555273,68.508 C431.754273,68.508 432.353273,69.106 432.234273,70.31 L430.196273,82.542 C430.076273,83.738 429.236273,84.338 428.038273,84.338 L388.706273,84.338 L385.349273,105.801 L428.397273,105.801 C429.596273,105.801 430.076273,106.4 429.955273,107.597 L427.797273,120.428 C427.676273,121.632 426.958273,122.23 425.759273,122.23 L365.683273,122.23 C364.484273,122.23 364.004273,121.632 364.124273,120.31 L378.273273,31.219 C378.393273,30.015 379.112273,29.417 380.313273,29.417 L500.147273,29.417 C501.346273,29.417 501.826273,30.015 501.706273,31.219 Z M629.471273,70.426 L627.433273,82.659 C627.313273,83.856 626.473273,84.454 625.275273,84.454 L588.223273,84.454 L582.466273,120.311 C582.347273,121.632 581.627273,122.23 580.428273,122.23 L565.200273,122.23 C564.001273,122.23 563.522273,121.632 563.640273,120.311 L577.790273,31.219 C577.910273,30.016 578.629273,29.417 579.828273,29.417 L643.004273,29.417 C644.202273,29.417 644.802273,30.016 644.682273,31.219 L642.644273,44.05 C642.403273,45.247 641.685273,45.846 640.486273,45.846 L594.337273,45.846 L590.741273,68.631 L627.793273,68.631 C628.991273,68.631 629.592273,69.23 629.471273,70.426 Z M388.706273,84.338 L388.712273,84.338 L388.309273,86.876 L388.706273,84.338 Z M510.726273,79.783 L524.396273,48.006 C525.036273,46.466 525.443273,45.589 525.990273,45.096 C526.465273,44.667 527.044273,44.525 527.993273,44.525 C530.391273,44.525 530.391273,45.124 530.751273,48.006 L534.348273,79.783 L510.726273,79.783 Z M542.334273,29.886 C539.756273,28.905 536.043273,28.702 530.511273,28.702 C516.601273,28.702 513.963273,30.016 508.208273,43.087 L474.633273,120.311 C474.154273,121.749 474.513273,122.23 475.832273,122.23 L491.060273,122.23 C492.259273,122.23 492.500273,121.749 493.099273,120.311 L504.011273,95.372 L536.026273,95.372 L539.024273,120.311 C539.144273,121.749 539.144273,122.23 540.344273,122.23 L555.572273,122.23 C556.891273,122.23 557.490273,121.749 557.490273,120.311 L548.617273,43.087 C547.658273,35.042 546.460273,31.458 542.334273,29.886 L542.334273,29.886 Z" id="Fill-2" fill="#333333"></path>
            </g>
        </g>
    </g>
</svg>