<svg width="64" height="64" viewBox="0 0 64 64" fill="none" xmlns="http://www.w3.org/2000/svg">
<path fill-rule="evenodd" clip-rule="evenodd" d="M45.3935 20.718L43.269 18.5934C42.3889 17.7134 40.9152 17.7603 39.9773 18.6982L37.8979 20.7776C37.7027 20.9729 37.7027 21.2895 37.8979 21.4847L42.5022 26.089C42.6975 26.2843 43.0141 26.2843 43.2093 26.089L45.2887 24.0096C46.2266 23.0717 46.2735 21.598 45.3935 20.718ZM20.9972 38.3855C20.8019 38.1902 20.8019 37.8736 20.9972 37.6784L35.863 22.8126C36.0582 22.6173 36.3748 22.6173 36.5701 22.8126L41.1744 27.4169C41.3696 27.6121 41.3696 27.9287 41.1744 28.124L26.3086 42.9898C26.1133 43.185 25.7967 43.185 25.6015 42.9898L20.9972 38.3855ZM19.6876 39.0677C19.6656 39.0457 19.6298 39.0457 19.6078 39.0677V39.0677C19.6019 39.0736 19.5974 39.0807 19.5946 39.0885L16.9561 46.3907C16.8121 46.7891 17.1978 47.1748 17.5962 47.0309L24.8985 44.3923C24.9063 44.3895 24.9133 44.385 24.9192 44.3791V44.3791C24.9412 44.3571 24.9412 44.3213 24.9192 44.2993L19.6876 39.0677Z" fill="currentColor"/>
</svg>
