<svg width="12" height="12" viewBox="0 0 12 12" fill="none" xmlns="http://www.w3.org/2000/svg">
<g id="Property 1=pending">
<path id="Ellipse 380" d="M11.265 6C11.6709 6 12.0046 5.6697 11.955 5.26681C11.857 4.47042 11.5998 3.6992 11.1962 3C10.6695 2.08788 9.91212 1.33046 9 0.803847C8.08788 0.277238 7.05322 -4.60377e-08 6 0C5.19263 3.52914e-08 4.39616 0.162915 3.65744 0.476193C3.28372 0.63468 3.16454 1.08884 3.3675 1.44039C3.57047 1.79194 4.01879 1.90606 4.39852 1.76255C4.90842 1.56984 5.45087 1.47002 6 1.47002C6.79518 1.47002 7.57635 1.67933 8.26499 2.07692C8.95363 2.47451 9.52549 3.04637 9.92308 3.73501C10.1976 4.21057 10.3824 4.73025 10.4705 5.2682C10.5361 5.6688 10.8591 6 11.265 6Z" fill="#DBAD34"/>
<path id="Ellipse 381" d="M0.73501 6C0.329075 6 -0.00464153 6.3303 0.0449633 6.73319C0.143016 7.52958 0.400161 8.30079 0.803847 9C1.33046 9.91212 2.08788 10.6695 3 11.1962C3.91211 11.7228 4.94678 12 6 12C6.80737 12 7.60384 11.8371 8.34256 11.5238C8.71628 11.3653 8.83546 10.9112 8.63249 10.5596C8.42953 10.2081 7.98121 10.0939 7.60148 10.2374C7.09157 10.4302 6.54913 10.53 6 10.53C5.20482 10.53 4.42365 10.3207 3.73501 9.92308C3.04637 9.52549 2.47451 8.95363 2.07692 8.26499C1.80236 7.78943 1.61758 7.26975 1.52952 6.7318C1.46394 6.3312 1.14095 6 0.73501 6Z" fill="#DBAD34"/>
</g>
</svg>
