<svg width="15" height="15" viewBox="0 0 15 15" fill="none" xmlns="http://www.w3.org/2000/svg">
  <path
    fillRule="evenodd"
    clipRule="evenodd"
    d="M12.6663 7.33366H11.6663V4.66699C11.6663 3.93366 11.0663 3.33366 10.333 3.33366H7.66634V2.33366C7.66634 1.41366 6.91967 0.666992 5.99967 0.666992C5.07967 0.666992 4.33301 1.41366 4.33301 2.33366V3.33366H1.66634C0.933008 3.33366 0.339674 3.93366 0.339674 4.66699V7.20033H1.33301C2.32634 7.20033 3.13301 8.00699 3.13301 9.00033C3.13301 9.99366 2.32634 10.8003 1.33301 10.8003H0.333008V13.3337C0.333008 14.067 0.933008 14.667 1.66634 14.667H4.19967V13.667C4.19967 12.6737 5.00634 11.867 5.99967 11.867C6.99301 11.867 7.79967 12.6737 7.79967 13.667V14.667H10.333C11.0663 14.667 11.6663 14.067 11.6663 13.3337V10.667H12.6663C13.5863 10.667 14.333 9.92033 14.333 9.00033C14.333 8.08033 13.5863 7.33366 12.6663 7.33366Z"
    fill="#333333"
  />
</svg>
