<svg width="64" height="64" viewBox="0 0 64 64" fill="none" xmlns="http://www.w3.org/2000/svg">
<g id="plus">
<path fill-rule="evenodd" clip-rule="evenodd" d="M34.5 12C34.5 10.6193 33.3807 9.5 32 9.5C30.6193 9.5 29.5 10.6193 29.5 12V29.5H12C10.6193 29.5 9.5 30.6193 9.5 32C9.5 33.3807 10.6193 34.5 12 34.5H29.5V52C29.5 53.3807 30.6193 54.5 32 54.5C33.3807 54.5 34.5 53.3807 34.5 52V34.5H52C53.3807 34.5 54.5 33.3807 54.5 32C54.5 30.6193 53.3807 29.5 52 29.5H34.5V12Z" fill="currentColor"/>
</g>
</svg>
