<svg width="28" height="28" viewBox="0 0 28 28" fill="none" xmlns="http://www.w3.org/2000/svg">
  <circle cx="14" cy="14" r="13" fill="white" stroke="#146EE6" strokeWidth="2" />
  <path
    d="M13.1377 17.3965C13.1494 16.6992 13.2285 16.1484 13.375 15.7441C13.5215 15.3398 13.8203 14.8916 14.2715 14.3994L15.4229 13.2129C15.915 12.6562 16.1611 12.0586 16.1611 11.4199C16.1611 10.8047 16 10.3242 15.6777 9.97852C15.3555 9.62695 14.8867 9.45117 14.2715 9.45117C13.6738 9.45117 13.1934 9.60938 12.8301 9.92578C12.4668 10.2422 12.2852 10.667 12.2852 11.2002H10.6592C10.6709 10.251 11.0078 9.48633 11.6699 8.90625C12.3379 8.32031 13.2051 8.02734 14.2715 8.02734C15.3789 8.02734 16.2402 8.32617 16.8555 8.92383C17.4766 9.51562 17.7871 10.3301 17.7871 11.3672C17.7871 12.3926 17.3125 13.4033 16.3633 14.3994L15.4053 15.3486C14.9775 15.8232 14.7637 16.5059 14.7637 17.3965H13.1377ZM13.0674 20.1826C13.0674 19.9189 13.1465 19.6992 13.3047 19.5234C13.4688 19.3418 13.709 19.251 14.0254 19.251C14.3418 19.251 14.582 19.3418 14.7461 19.5234C14.9102 19.6992 14.9922 19.9189 14.9922 20.1826C14.9922 20.4463 14.9102 20.666 14.7461 20.8418C14.582 21.0117 14.3418 21.0967 14.0254 21.0967C13.709 21.0967 13.4688 21.0117 13.3047 20.8418C13.1465 20.666 13.0674 20.4463 13.0674 20.1826Z"
    fill="#146EE6"
  />
</svg>
