<svg width="35" height="48" viewBox="0 0 35 48" fill="none" xmlns="http://www.w3.org/2000/svg">
<path fill-rule="evenodd" clip-rule="evenodd" d="M17.4545 6.54545V0L8.72727 8.72727L17.4545 17.4545V10.9091C24.6764 10.9091 30.5455 16.7782 30.5455 24C30.5455 26.2036 30 28.2982 29.0182 30.1091L32.2036 33.2945C33.9055 30.6109 34.9091 27.4255 34.9091 24C34.9091 14.3564 27.0982 6.54545 17.4545 6.54545ZM17.4545 37.0909C10.2327 37.0909 4.36364 31.2218 4.36364 24C4.36364 21.7964 4.90909 19.7018 5.89091 17.8909L2.70545 14.7055C1.00364 17.3891 0 20.5745 0 24C0 33.6436 7.81091 41.4545 17.4545 41.4545V48L26.1818 39.2727L17.4545 30.5455V37.0909Z" fill="black"/>
</svg>
