<svg width="12" height="12" viewBox="0 0 12 12" fill="none" xmlns="http://www.w3.org/2000/svg">
<g id="Property 1=running">
<path id="Union" fill-rule="evenodd" clip-rule="evenodd" d="M6.00485 12C9.31633 11.9974 12 9.31209 12 6C12 2.68629 9.31371 0 6 0C2.68629 0 0 2.68629 0 6C0 9.30934 2.67921 11.9929 5.9869 12C5.99126 12 5.99563 12 6 12L6.00485 12ZM9.3234 9.3234C8.47287 10.1739 7.29787 10.7 6 10.7C3.40426 10.7 1.3 8.59574 1.3 6C1.3 3.40426 3.40426 1.3 6 1.3L6 6L9.3234 9.3234Z" fill="#4C9878"/>
</g>
</svg>
