<svg width="64" height="64" viewBox="0 0 64 64" fill="none" xmlns="http://www.w3.org/2000/svg">
  <path
    fillRule="evenodd"
    clipRule="evenodd"
    d="M41.3333 37.3333H39.2267L38.48 36.6133C41.0933 33.5733 42.6667 29.6267 42.6667 25.3333C42.6667 15.76 34.9067 8 25.3333 8C15.76 8 8 15.76 8 25.3333C8 34.9067 15.76 42.6667 25.3333 42.6667C29.6267 42.6667 33.5733 41.0933 36.6133 38.48L37.3333 39.2267V41.3333L50.6667 54.64L54.64 50.6667L41.3333 37.3333ZM25.3333 37.3333C18.6933 37.3333 13.3333 31.9733 13.3333 25.3333C13.3333 18.6933 18.6933 13.3333 25.3333 13.3333C31.9733 13.3333 37.3333 18.6933 37.3333 25.3333C37.3333 31.9733 31.9733 37.3333 25.3333 37.3333Z"
    fill="black"
  />
</svg>
