<svg width="16" height="16" viewBox="0 0 16 16" fill="none" xmlns="http://www.w3.org/2000/svg">
  <path
    d="M7.60575 1.72415C7.85574 1.47408 8.19483 1.33356 8.54842 1.33348H13.3298C13.6834 1.33348 14.0225 1.47396 14.2726 1.72401C14.5226 1.97405 14.6631 2.31319 14.6631 2.66681V7.44815C14.663 7.80174 14.5225 8.14082 14.2724 8.39081L8.46975 14.1935C8.16674 14.4946 7.75692 14.6636 7.32975 14.6636C6.90258 14.6636 6.49276 14.4946 6.18975 14.1935L1.80308 9.80681C1.50199 9.50381 1.333 9.09398 1.333 8.66681C1.333 8.23965 1.50199 7.82982 1.80308 7.52681L7.60575 1.72415Z"
    stroke="currentColor" stroke-linecap="round" stroke-linejoin="round" />
  <path
    d="M10.9967 5.33348C10.8126 5.33348 10.6634 5.18424 10.6634 5.00014C10.6634 4.81605 10.8126 4.66681 10.9967 4.66681C11.1808 4.66681 11.3301 4.81605 11.3301 5.00014C11.3301 5.18424 11.1808 5.33348 10.9967 5.33348Z"
    fill="#6A6867" stroke="currentColor" stroke-linecap="round" stroke-linejoin="round" />
</svg>