<svg width="20" height="20" viewBox="0 0 20 20" fill="none" xmlns="http://www.w3.org/2000/svg">
  <path
    d="M7.50065 5.83301C7.50065 5.16997 7.76404 4.53408 8.23288 4.06524C8.70172 3.5964 9.33761 3.33301 10.0007 3.33301C10.6637 3.33301 11.2996 3.5964 11.7684 4.06524C12.2373 4.53408 12.5007 5.16997 12.5007 5.83301M7.50065 5.83301H12.5007M7.50065 5.83301H5.00065M12.5007 5.83301H15.0007M5.00065 5.83301H3.33398M5.00065 5.83301V14.9997C5.00065 15.4417 5.17625 15.8656 5.48881 16.1782C5.80137 16.4907 6.22529 16.6663 6.66732 16.6663H13.334C13.776 16.6663 14.1999 16.4907 14.5125 16.1782C14.8251 15.8656 15.0007 15.4417 15.0007 14.9997V5.83301M15.0007 5.83301H16.6673"
    stroke="currentColor" stroke-width="1.3" stroke-linecap="round" stroke-linejoin="round" />
</svg>