<svg width="26" height="26" viewBox="0 0 26 26" fill="none" xmlns="http://www.w3.org/2000/svg">
<path d="M18.3333 1H7.66667L1 8.05882V17.9412L7.66667 25H18.3333L25 17.9412V8.05882L18.3333 1Z" stroke="currentColor"/>
<path d="M13.3311 18H12.0664V10.6035H13.3311V18ZM11.9639 8.6416C11.9639 8.43652 12.0254 8.26335 12.1484 8.12207C12.276 7.98079 12.4629 7.91016 12.709 7.91016C12.9551 7.91016 13.1419 7.98079 13.2695 8.12207C13.3971 8.26335 13.4609 8.43652 13.4609 8.6416C13.4609 8.84668 13.3971 9.01758 13.2695 9.1543C13.1419 9.29102 12.9551 9.35938 12.709 9.35938C12.4629 9.35938 12.276 9.29102 12.1484 9.1543C12.0254 9.01758 11.9639 8.84668 11.9639 8.6416Z" fill="currentColor"/>
</svg>
